<svg xmlns="http://www.w3.org/2000/svg" viewBox="0 0 823.2 306.27"><defs><style>.cls-1{fill:#1f1f1f;}.cls-1,.cls-2{stroke:#535353;}.cls-1,.cls-14,.cls-2{stroke-miterlimit:10;}.cls-1,.cls-2,.cls-5{stroke-width:11px;}.cls-14,.cls-2,.cls-5{fill:none;}.cls-2{stroke-linecap:round;}.cls-3,.cls-9{fill:#cacaca;}.cls-4{fill:#494949;}.cls-5{stroke:#2e2e2e;}.cls-13,.cls-5,.cls-9{stroke-linejoin:round;}.cls-6{fill:#2e2e2e;}.cls-7{fill:#5a5a5a;}.cls-8{fill:#e6e6e6;}.cls-9{stroke:#cacaca;}.cls-14,.cls-9{stroke-width:8px;}.cls-10{fill:#1a1a1a;}.cls-11{fill:#787878;}.cls-12{fill:#bababa;}.cls-13{fill:#dcdcdc;stroke:#787878;stroke-width:6px;}.cls-14{stroke:#1a1a1a;}</style></defs><title>BatMonster_1_grayscale</title><g id="BackWing"><path class="cls-1" d="M764.77,377.31c7.82,9.71,19.25,23.44,27.41,33.78a11.54,11.54,0,0,0,5.76,3.88c3.22,1,7.21,1.53,11.06-.06,11.9-4.91,19.77-19.11,17.72-34.51-14-105.67-90.19-189.32-183.4-199.72q-2.79-.31-5.58-.54c-2.48-.19-5-.34-7.46-.43-2-.08-3.94-.12-5.93-.12v.17c-1.66-.1-3.33-.17-5-.17a79.47,79.47,0,0,0-79.48,79.48v.13a11.78,11.78,0,0,1-11.72,11.9H521c-5,0-47.45,3.06-47.45,7.33v55.78c0,4.26,42.42,8.1,47.45,8.1h13.81l1,.08c13.36,1.11,41.47-31.36,75.28-16.85,14,6,25.46,62.56,42.88,65.53.85.14,15.66,1.4,38.83-17.8C730.91,341.67,764.77,377.31,764.77,377.31Z" transform="translate(-9.34 -116.65)"/><path class="cls-2" d="M601.75,181.65c53.62,0,97.08,52.91,97.08,118.17,0,34.37-12.06,65.31-31.3,86.9" transform="translate(-9.34 -116.65)"/><path class="cls-2" d="M566.39,201.61c24.07.85,38.64,21.5,37.31,59.27-.7,19.89-24.87,64.51-39.46,68.79" transform="translate(-9.34 -116.65)"/></g><g id="FrontWing"><path class="cls-1" d="M77.12,378.83c-7.82,9.7-19.25,23.43-27.41,33.77A11.56,11.56,0,0,1,44,416.49c-3.22,1-7.21,1.52-11.06-.07-11.9-4.9-19.77-19.11-17.73-34.51,14-105.67,90.2-189.32,183.41-199.72q2.79-.31,5.58-.54c2.48-.19,5-.34,7.46-.43q3-.1,5.92-.12v.17c1.67-.1,3.34-.17,5-.17A79.48,79.48,0,0,1,302,260.58v.13a11.78,11.78,0,0,0,11.72,11.9h7.15c5,0,47.45,3.07,47.45,7.33v55.78c0,4.26-42.42,8.1-47.45,8.1H307.1l-1,.08c-13.36,1.11-41.47-31.36-75.28-16.85-14,6-25.46,62.56-42.88,65.53-.85.14-15.66,1.4-38.83-17.8C111,343.18,77.12,378.83,77.12,378.83Z" transform="translate(-9.34 -116.65)"/><path class="cls-2" d="M240.14,183.17c-53.62,0-97.08,52.9-97.08,118.16,0,34.37,12.06,65.31,31.3,86.9" transform="translate(-9.34 -116.65)"/><path class="cls-2" d="M275.5,203.13c-24.07.84-38.64,21.49-37.31,59.26.7,19.89,24.87,64.51,39.46,68.79" transform="translate(-9.34 -116.65)"/></g><g id="Body"><path class="cls-3" d="M534.81,200.49c0-39.81-21.46-73.29-50.61-83.16a12.81,12.81,0,0,0-16.85,12.18V286.58h67.46V205.14h-.11C534.76,203.6,534.81,202.05,534.81,200.49Z" transform="translate(-9.34 -116.65)"/><path class="cls-4" d="M307.83,200.49c0-39.81,21.46-73.29,50.61-83.16a12.8,12.8,0,0,1,16.84,12.18V286.58H307.83V205.14h.11C307.87,203.6,307.83,202.05,307.83,200.49Z" transform="translate(-9.34 -116.65)"/><path class="cls-5" d="M313.1,260.79c-.31-6.71.88-18.69,3.66-24.93,9.83-22.09,25.3-41.8,47.38-50.94a31.58,31.58,0,0,1,11.14-2.36" transform="translate(-9.34 -116.65)"/><circle class="cls-4" cx="407.74" cy="174.7" r="113.49"/><path class="cls-6" d="M467.35,189.58c32.95,19.86,44.91,49.89,44.91,91.17A113.49,113.49,0,0,1,398.77,394.24c-12.34,0-25.42.13-36.54-3.51,17.08,10.3,38.29,14.12,59.69,14.12a113.5,113.5,0,0,0,113.5-113.49C535.42,241,512.73,204.43,467.35,189.58Z" transform="translate(-9.34 -116.65)"/><ellipse class="cls-7" cx="402.84" cy="206.56" rx="44.31" ry="22.53" transform="matrix(0.98, -0.18, 0.18, 0.98, -40.33, -39.46)"/><path class="cls-4" d="M511.11,200.49c0-39.81-13.92-73.29-32.83-83.16-5.37-2.8-10.93,3.44-10.93,12.18V286.58h43.76V205.14H511C511.08,203.6,511.11,202.05,511.11,200.49Z" transform="translate(-9.34 -116.65)"/><g id="Layer_5" data-name="Layer 5"><path class="cls-8" d="M358,358.56c0,4.88,4.14,9,9.81,10.23,1.6.35,3.27-.41,3.28-1.48l0-9.28,0-8.13V348L358,348l0,10h0C358,358.18,358,358.37,358,358.56Z" transform="translate(-9.34 -116.65)"/><path class="cls-8" d="M398.4,358.54c0,4.88-4.11,9-9.77,10.27-1.61.36-3.28-.4-3.29-1.47l-.06-9.28-.06-8.13,0-1.86,13.12-.09.07,10h0Z" transform="translate(-9.34 -116.65)"/><polygon class="cls-9" points="390.85 232.18 346.95 232.18 364.08 186.4 364.08 186.4 390.85 232.18"/><ellipse class="cls-10" cx="385.2" cy="336.52" rx="5.13" ry="8.76" transform="translate(-92.9 15.2) rotate(-17.55)"/><path class="cls-11" d="M389,343.67c-2.7.86-6.08-2.19-7.54-6.8-1-3.28-.82-6.47.36-8.34-2.1,1.4-2.77,5.38-1.47,9.51,1.46,4.62,4.84,7.67,7.54,6.81a3.53,3.53,0,0,0,1.9-1.57A2.91,2.91,0,0,1,389,343.67Z" transform="translate(-9.34 -116.65)"/><ellipse class="cls-10" cx="366.57" cy="336.52" rx="8.76" ry="5.13" transform="translate(-54.83 498.83) rotate(-76.65)"/><path class="cls-11" d="M366.06,344.61c-2.75-.66-4.09-5-3-9.72.8-3.34,2.61-6,4.59-7-2.52.13-5.14,3.19-6.15,7.41-1.11,4.71.22,9.06,3,9.71a3.52,3.52,0,0,0,2.43-.37A3.24,3.24,0,0,1,366.06,344.61Z" transform="translate(-9.34 -116.65)"/></g></g><g id="Eyes"><polygon class="cls-12" points="456.57 178.26 434.19 201.99 398.11 203.52 375.86 176.8 415.09 163.12 453.86 150.74 456.57 178.26"/><path class="cls-13" d="M421.65,306.57c0,8.86-4.63,16.49-11,13.47-5.8-2.75-12.23-4.61-12.23-13.47s5.2-16,11.62-16S421.65,297.71,421.65,306.57Z" transform="translate(-9.34 -116.65)"/><path class="cls-14" d="M439,319.44a42.25,42.25,0,0,0,26-53.8L385.2,293.45A42.25,42.25,0,0,0,439,319.44Z" transform="translate(-9.34 -116.65)"/><polygon class="cls-12" points="330.5 202.12 301.24 202.12 301.24 161.13 316.34 166.53 352.88 179.68 330.5 202.12"/><path class="cls-13" d="M332.7,307.4c0,8.87-5.06,17.31-11.63,15-6-2.17-11.62-6.08-11.62-15s5.2-16,11.62-16S332.7,298.54,332.7,307.4Z" transform="translate(-9.34 -116.65)"/><path class="cls-10" d="M305.56,269.21c20.16,7,42.64,14.88,62.8,21.89L367,294.88a46.05,46.05,0,0,1-43.52,31.06,46.77,46.77,0,0,1-11-1.32l-4.62-1.56c-.06-.54-1-3.61-1.12-4.13s-.52-2.25-.67-2.84c-.34-1.31-1.11-5.44-1.3-6.82-.4-3-.61-4.11-.9-7.12-.67-7.08-.77-9.45-.45-14.5.08-1.18.37-6.22.5-7.6.1-1,.76-5.29.83-6.46m12.47,43.66A38,38,0,0,0,358,295.79l-43.2-15c0,2.51-.23,4.05-.34,6.9-.44,4.42-.34,6.62-.44,10.64a60.12,60.12,0,0,0,.84,10.8A33.71,33.71,0,0,0,317.26,317.25Z" transform="translate(-9.34 -116.65)"/></g></svg>